<svg width="900" height="460" viewBox="0 0 900 460" fill="none" xmlns="http://www.w3.org/2000/svg">
  <defs>
    <linearGradient id="body" x1="170" y1="145" x2="745" y2="335" gradientUnits="userSpaceOnUse">
      <stop stop-color="#ffffff"/>
      <stop offset="0.48" stop-color="#D7D7DA"/>
      <stop offset="1" stop-color="#FFFFFF"/>
    </linearGradient>
    <linearGradient id="glass" x1="290" y1="120" x2="585" y2="210" gradientUnits="userSpaceOnUse">
      <stop stop-color="#22242A"/>
      <stop offset="1" stop-color="#07080A"/>
    </linearGradient>
    <filter id="shadow" x="80" y="120" width="760" height="270" filterUnits="userSpaceOnUse" color-interpolation-filters="sRGB">
      <feDropShadow dx="0" dy="22" stdDeviation="22" flood-color="#000" flood-opacity="0.55"/>
    </filter>
  </defs>
  <ellipse cx="450" cy="345" rx="320" ry="34" fill="#000" opacity="0.45"/>
  <g filter="url(#shadow)">
    <path d="M156 286C164 239 202 218 252 210L317 146C341 124 375 112 410 112H526C568 112 605 130 631 162L681 222C736 229 778 251 791 292L800 323C803 335 794 347 781 347H137C124 347 115 335 119 322L156 286Z" fill="url(#body)"/>
    <path d="M305 209L356 153C369 139 390 130 411 130H520C546 130 570 141 586 160L629 211H305Z" fill="url(#glass)"/>
    <path d="M451 132V210" stroke="#585B63" stroke-width="5" opacity="0.7"/>
    <path d="M178 285C250 304 650 305 777 285" stroke="#B8BAC2" stroke-width="6" opacity="0.7"/>
    <path d="M165 296H235" stroke="#E30613" stroke-width="9" stroke-linecap="round"/>
    <path d="M695 296H775" stroke="#E30613" stroke-width="9" stroke-linecap="round"/>
    <rect x="401" y="286" width="106" height="34" rx="8" fill="#fff" stroke="#E30613" stroke-width="4"/>
    <text x="417" y="309" fill="#111" font-family="Arial" font-size="18" font-weight="900">AUTO.IT</text>
    <circle cx="271" cy="340" r="55" fill="#050505" stroke="#2B2B31" stroke-width="12"/>
    <circle cx="271" cy="340" r="24" fill="#D9D9D9"/>
    <circle cx="661" cy="340" r="55" fill="#050505" stroke="#2B2B31" stroke-width="12"/>
    <circle cx="661" cy="340" r="24" fill="#D9D9D9"/>
  </g>
  <text x="450" y="78" text-anchor="middle" fill="#ffffff" opacity="0.16" font-family="Arial" font-size="48" font-weight="900">CITROEN C3 AIRCROSS</text>
</svg>